<?xml version="1.0" standalone="no"?>
<!DOCTYPE svg PUBLIC "-//W3C//DTD SVG 20010904//EN"
 "http://www.w3.org/TR/2001/REC-SVG-20010904/DTD/svg10.dtd">
<svg version="1.0" xmlns="http://www.w3.org/2000/svg"
 width="1024.000000pt" height="1024.000000pt" viewBox="0 0 1024.000000 1024.000000"
 preserveAspectRatio="xMidYMid meet">
<metadata>
Created by potrace 1.12, written by Peter Selinger 2001-2015
</metadata>
<g transform="translate(0.000000,1024.000000) scale(0.100000,-0.100000)"
fill="#000000" stroke="none">
<path d="M4975 10069 c-495 -38 -997 -175 -1395 -380 -660 -341 -1164 -870
-1537 -1616 -89 -178 -93 -185 -151 -227 -99 -73 -234 -259 -292 -401 -19 -48
-26 -56 -44 -51 -81 19 -95 18 -118 -6 -13 -14 -44 -58 -69 -99 -43 -71 -48
-75 -97 -87 -67 -18 -172 -92 -251 -178 -73 -80 -200 -268 -262 -387 -30 -57
-54 -91 -83 -112 -128 -96 -285 -393 -375 -710 -70 -248 -96 -431 -95 -655 1
-150 4 -186 23 -250 19 -63 24 -112 31 -305 13 -361 54 -539 158 -681 32 -44
117 -94 161 -94 23 0 30 -9 54 -68 15 -38 43 -87 62 -110 39 -44 100 -72 293
-132 101 -31 104 -33 98 -59 -34 -159 -40 -217 -41 -391 0 -214 15 -318 75
-500 86 -264 258 -525 458 -696 201 -172 366 -257 719 -373 l263 -86 -101
-110 c-234 -254 -609 -707 -667 -805 -36 -59 -37 -154 -4 -217 44 -83 136
-131 230 -120 27 3 99 30 167 63 541 256 1269 530 1752 659 l143 38 937 -303
c515 -166 989 -314 1053 -328 101 -21 141 -25 320 -25 176 -1 220 2 310 22
575 123 1009 503 1205 1056 16 44 30 82 31 83 1 2 52 -14 112 -37 141 -51 287
-91 334 -91 42 0 163 59 228 110 22 17 62 38 88 44 132 36 304 170 456 358 31
39 44 48 70 48 94 0 244 132 374 329 164 247 297 570 363 876 28 130 37 367
16 441 -12 46 -12 62 5 140 55 274 71 597 35 762 -10 45 -16 86 -13 90 2 4 12
96 21 205 19 228 23 216 -70 257 l-57 25 9 70 c11 99 9 333 -5 378 -8 31 -7
57 8 135 39 204 52 347 57 615 9 448 -38 771 -165 1147 -419 1234 -1612 2189
-3237 2591 -529 131 -1107 185 -1590 148z m69 -925 c500 -45 1075 -180 1791
-419 939 -313 1559 -651 2000 -1089 502 -500 740 -1081 771 -1883 l7 -180 -25
-34 c-54 -71 -114 -222 -138 -347 l-12 -60 -42 12 c-22 7 -51 16 -63 20 -33
11 -68 -29 -77 -87 -4 -26 -11 -49 -17 -52 -11 -7 -149 36 -149 46 0 4 22 58
48 121 110 255 142 397 149 653 6 218 -11 354 -68 531 -141 442 -482 811 -913
989 -89 37 -3826 1249 -3946 1280 -115 30 -222 45 -355 52 -638 30 -1227 -326
-1505 -909 -67 -141 -101 -248 -155 -493 -25 -115 -49 -217 -53 -226 -6 -14
-16 -13 -85 9 -64 19 -78 27 -73 40 37 115 34 128 -35 150 -24 8 -45 16 -47
17 -1 1 14 37 34 80 47 102 84 250 84 337 0 66 2 72 52 146 341 508 776 888
1250 1091 462 198 952 262 1572 205z m-949 -944 c111 -16 153 -29 835 -250
355 -114 1202 -389 1883 -609 681 -221 1271 -415 1311 -431 296 -123 526 -373
626 -679 41 -126 54 -230 47 -390 -7 -185 -31 -271 -162 -576 -393 -919 -613
-1516 -786 -2125 -85 -302 -235 -896 -324 -1290 -71 -312 -102 -411 -161 -519
-239 -437 -695 -648 -1196 -555 -110 21 -856 264 -962 314 -185 88 -434 162
-636 191 -137 20 -517 17 -698 -5 -379 -45 -883 -174 -1201 -305 -41 -17 -75
-30 -77 -29 -1 2 53 113 120 248 119 241 240 519 252 578 l6 30 -373 122
c-249 81 -404 137 -464 168 -409 211 -644 637 -597 1087 17 159 46 249 188
585 313 738 532 1315 674 1777 119 386 277 1001 410 1590 33 150 69 296 79
325 137 397 465 680 861 743 103 16 251 18 345 5z m-2330 -966 c137 -31 253
-58 257 -61 4 -2 2 -18 -6 -36 -8 -18 -73 -169 -146 -337 -266 -616 -432
-1035 -480 -1212 -68 -256 -151 -738 -191 -1108 -13 -128 -22 -290 -25 -470
-4 -249 -6 -281 -26 -343 -26 -80 -10 -78 -208 -14 -145 47 -175 70 -209 162
-60 161 -81 311 -81 588 0 473 92 1033 250 1527 165 511 236 699 350 925 92
181 242 435 257 435 4 0 120 -25 258 -56z m7854 -2275 c135 -45 247 -83 249
-84 11 -9 -37 -433 -69 -608 -55 -304 -266 -1010 -391 -1307 -84 -199 -300
-627 -398 -790 -208 -345 -437 -607 -613 -701 -51 -27 -65 -30 -105 -24 -38 6
-309 91 -320 101 -2 1 -1 21 3 44 5 27 22 59 55 98 174 208 432 633 653 1077
255 511 301 641 451 1270 53 222 226 988 226 1001 0 8 17 3 259 -77z"/>
<path d="M4900 6910 c-776 -56 -1475 -481 -1882 -1146 -156 -254 -263 -541
-319 -861 -31 -173 -34 -567 -6 -738 90 -541 328 -1002 708 -1370 361 -349
811 -572 1319 -651 161 -26 529 -26 690 -1 827 130 1522 660 1849 1412 85 193
140 384 178 610 14 85 18 165 18 350 0 296 -18 430 -91 680 -251 854 -958
1500 -1833 1674 -194 39 -438 55 -631 41z m422 -345 c792 -104 1448 -642 1698
-1393 178 -533 137 -1078 -120 -1589 -161 -320 -387 -575 -684 -774 -349 -235
-735 -352 -1156 -351 -551 1 -1061 212 -1450 602 -180 179 -292 339 -406 575
-236 494 -266 1047 -83 1571 43 124 145 332 216 439 338 512 878 847 1488 924
115 14 375 12 497 -4z"/>
<path d="M5500 5883 c-18 -48 -101 -295 -185 -548 -151 -455 -252 -735 -264
-735 -7 0 -90 167 -333 670 -121 249 -193 383 -284 530 l-55 90 -40 -22 c-87
-49 -251 -182 -343 -279 -205 -216 -336 -470 -393 -764 -21 -111 -24 -385 -5
-495 110 -629 535 -1092 1132 -1232 109 -25 401 -36 522 -19 507 72 953 394
1167 844 186 391 171 888 -39 1309 -152 304 -382 530 -690 677 -163 77 -152
79 -190 -26z"/>
</g>
</svg>
